<svg xmlns="http://www.w3.org/2000/svg" viewBox="0 0 1523.57 362.26" width="185" height="60">
    <!-- Cores: #4C87C2 #223A78 -->
  <g class="Camada">
    <g class="simbolo">
      <path style="fill: #4C87C2" d="M20.45,186.05h0q21.92-1.76,43.84-3.48c31.41-2.44,62.82-4.91,94.25-7.17,4.11-.29,5.34-1,3.47-5.18q-31.17-69.78-62-139.68c-2.24-5.1-4.31-4.93-8.39-2.53a281.18,281.18,0,0,0-27.91,19.2c-4.77,3.65-5,6.56-2.63,11.7,10.67,23.24,20.87,46.69,31.34,70,1.31,2.94,1.89,4.47-2.42,4.78-25.3,1.82-50.57,4-75.88,5.73-6,.39-9.92,1.88-10.44,8.37h0C0,151,2.52,156.14,0,159.71v27.4C6.89,188.23,13.68,187.4,20.45,186.05Z"/>
      <path style="fill: #223A78" d="M290,175.77q31.6-21.71,63.19-43.44c1.57-1.09,3.65-1.72,3.91-4.09-.3-.76-.61-1.49-.86-2.23a203.26,203.26,0,0,0-13.46-31.7c-4.95-9.14-4.92-9.15-13.32-3.38q-61.77,42.39-123.57,84.73c-3.08,2.11-4.53,3.1-.41,6.08q62.86,45.49,125.42,91.43c3.51,2.58,4.86,1.73,6.76-1.45a211,211,0,0,0,16.57-34.81c1.43-3.89.46-5.7-2.52-7.85C331,214.09,310.38,199,289.7,184,284.05,179.83,284.06,179.87,290,175.77Z"/>
      <path style="fill: #4C87C2" d="M163.85,197.42c-4.88.75-9.86,1-14.8,1.31q-57.29,3.79-114.58,7.57-12.16.81-24.31,1.83c-2.55.2-4.33.63-3.72,4.34a238.06,238.06,0,0,0,9,35.68c1.61,4.89,4.15,6.34,9.12,6,24.91-1.81,49.85-3.35,74.78-5,7.33-.62,7.39-.6,5.45,6.44C98,280.41,91.17,305.26,84,330c-1,3.58,0,5,2.7,6.66a229.3,229.3,0,0,0,33.44,16.8c4.94,2,6.13.41,7.23-3.93,2.8-10.94,6-21.78,9-32.66,10.56-38,21-76,31.75-113.95C169.42,198.37,169.08,196.62,163.85,197.42Z"/>
      <path style="fill: #4C87C2" d="M321.13,291.5Q258.7,246.77,196.32,202c-3.16-2.28-4.38-1.72-5.3,1.78-1.62,6.13-3.39,12.22-5.14,18.31C173.43,265.5,161,308.94,148.4,352.31c-1.2,4.09-.12,5.33,3.6,6a280.8,280.8,0,0,0,34.24,3.93c6.57.35,8.93-2.13,10.54-8,6.57-24.09,13.56-48.06,20.41-72.06,1.79-6.25,1.91-6.21,7.18-2.44q31.69,22.71,63.44,45.36c2.13,1.52,3.73,3,6.65.58,10.32-8.43,20.24-17.23,28.7-27.59.73-.89,1.33-1.87,1.85-2.62C324.38,293.12,322.54,292.51,321.13,291.5Z"/>
      <path style="fill: #4C87C2" d="M144.45,40.89Q163.83,99,183.14,157.06c1.38,4.2,2.82,4.59,6.08,1.91,5.36-4.41,10.89-8.59,16.35-12.86L310.1,64.47c1.22-1,2.73-1.67,3.13-3.89-.79-1-1.69-2.24-2.75-3.37A224.05,224.05,0,0,0,284.93,34.1c-4.6-3.59-7.75-3.55-12.32.1-19.5,15.62-39.29,30.87-59,46.22-5.34,4.16-5.36,4.11-7.5-2.34Q193.94,41.42,181.78,4.77C180.85,2,180,0,176.24,0c-13.4,0-26.41,2.3-39.34,5.48-3.06.75-3.72,1.91-2.64,5C137.83,20.54,141.07,30.74,144.45,40.89Z"/>
    </g>
    <g class="co">
      <path style="fill: #223A78" d="M467.34,211.15c-2.33-3.31-3.62-3.33-6.71-.7-11.51,9.79-27.64,9.14-39.09-1.14a30.2,30.2,0,0,1,38.78-46.26c3.19,2.44,4.58,2.47,6.82-1a135.13,135.13,0,0,1,11.42-15.19c3.11-3.54,2.32-5.56-1.06-8A62,62,0,0,0,448,127.39c-24.89-3.18-52,12.49-60.79,35.44A13,13,0,0,0,384.7,170h0a54.5,54.5,0,0,0-.05,33.79h0a27.08,27.08,0,0,0,1.09,4.58c9.67,22.43,26,35.9,50.93,37.94,15.46,1.27,29.39-2.59,41.82-12,3.25-2.45,4.43-4.34,1.13-7.89A146.93,146.93,0,0,1,467.34,211.15Z"/>
      <path style="fill: #223A78" d="M617.33,177.15a3.23,3.23,0,0,0,.23-1.15c-5.73-29.81-32.58-52.73-68.24-47.51-38.44,5.63-60.33,45.69-45.85,82.06,11,27.77,42.7,43.59,71.16,34.95,23.28-7.07,38.28-22.22,42.59-46.82A53.64,53.64,0,0,0,617.33,177.15ZM558.87,218c-17.31,0-30.17-13.11-30.2-30.68a30,30,0,0,1,30.23-30.13,30.73,30.73,0,0,1,30.43,30.23A30.18,30.18,0,0,1,558.87,218Z"/>
    </g>
    <g class="eficiente">
      <path style="fill: #4C87C2" d="M1311.61,191.16c-.2-28.38-19.56-51.9-47.32-57.83-32.93-7-65.38,14-70.76,47.21-3.4,21-1.59,42.37-1.83,63.58,0,2.84,1.56,3.63,4.21,3.59,6.55-.11,13.12-.31,19.64.09,4.63.29,5.66-1.45,5.62-5.77q-.2-25.9.23-51.81c.27-16.11,14.51-29.34,30.93-29.13s30,14,29.87,30.08c-.07,13.1-.34,26.21,0,39.3.15,5.62-1.37,11.4,1,16.9l0,0h0c7.55,2.1,15.27.3,22.87,1,4.31.41,5.4-1.41,5.37-5.48C1311.41,225.7,1311.73,208.43,1311.61,191.16Z"/>
      <path style="fill: #4C87C2" d="M1383.62,133.05c-6.34.13-12.71-.32-19,0-5.1.29-6.89-1.17-6.75-6.6.43-16.45.29-32.92.3-49.39,0-2.2,1-5.63-2.61-5.54-8.61.22-17.29-1.42-25.83.84l0,0h0c-1.76,1.64-.85,3.75-.86,5.62-.1,12.68-.06,25.37-.06,38.05,0,26.58-1.06,53.22.29,79.73,1.38,27.16,24.24,50.32,52.93,52.8,4,.35,5.24-1.05,5.09-5-.25-6.34-.18-12.7.06-19,.13-3.69-1.07-5.19-4.9-5.74a28.71,28.71,0,0,1-24.08-23.67c-1.75-10.63-.22-21.39-.74-32.07-.23-4.65,1.71-5.72,6.06-5.43,6.52.44,13.09.08,19.63.27,3.59.11,5-1.26,4.85-4.89-.2-5.15-.16-10.32.08-15.47C1388.17,134.28,1387,133,1383.62,133.05Z"/>
      <path style="fill: #4C87C2" d="M829.23,68.77l-1.19.09h0c-20.68-.53-42.91,14.92-51.46,35.31-4.84,11.54-4.59,23.54-4.64,35.65q-.21,49.68-.94,99.34c-.07,4.79,1.42,6.33,6.12,6.06a158.48,158.48,0,0,1,17.84.09c4.17.24,5.64-1.2,5.58-5.37-.16-10.71.41-21.43-.08-32.12-.28-6,2.06-7.43,7.44-7.13,6.13.35,12.29,0,18.43.14,3,.08,4.37-.81,4.27-4-.17-5.55-.13-11.11,0-16.66.08-3.05-1.05-4.21-4.18-4.14-6.74.16-13.49-.19-20.22,0-4.18.15-5.56-1.38-5.48-5.53.24-13.28.15-26.57.24-39.86.11-17.93,8.26-28.32,25.86-32.57,3.34-.81,4.61-2.23,4.52-5.63-.17-6.54,0-13.09,0-19.64C831.34,71.2,832,69,829.23,68.77Z"/>
      <path style="fill: #4C87C2" d="M982.43,220c-7.09-8.59-7.09-8.59-16.18-2.3-9.14,3.73-18.25,3.29-27.36-.13h0c-.78-.6-1.54-1.24-2.35-1.81-15-10.66-18.85-29.54-8.89-43.23,11.57-15.9,32.94-16.87,44.42-5.81,2.12,2,3.32,1.35,4.71-.52q3.91-5.25,7.86-10.48c8.64-11.47,8.64-11.47-4.13-18.38-36-19.51-80.07,2.59-86.7,43.52a59.87,59.87,0,0,0,27.62,60.25c19.86,12.25,46.87,11.25,65.73-2.45,6.4-4.65,6.44-4.85,1.66-10.82C986.72,225.19,984.58,222.58,982.43,220Z"/>
      <path style="fill: #4C87C2" d="M862.17,85.85c-9-.1-17.51,8.31-17.6,17.47a17.58,17.58,0,0,0,17.58,17.85,17.2,17.2,0,0,0,17.19-17.5C879.36,94.33,871.28,86,862.17,85.85Z"/>
      <path style="fill: #4C87C2" d="M1024.83,87.43c-10.13.08-17.16,7.14-17.12,17.19a17.24,17.24,0,0,0,17.76,17.51,17.87,17.87,0,0,0,17.08-17.19A17.48,17.48,0,0,0,1024.83,87.43Z"/>
      <path style="fill: #4C87C2" d="M1038,131.81h0c-6.82-1.68-13.78-.24-20.63-.93-5.33-.54-7.15,1.06-7.13,6.79.14,34.71-.1,69.41-.39,104.11,0,3.25.46,4.76,4,4.67,6.94-.16,13.89-.12,20.82.08,3.47.1,4.34-1.34,4.34-4.59q-.09-53.83,0-107.67C1039.37,133.16,1039.22,132.25,1038,131.81Z"/>
      <path style="fill: #4C87C2" d="M874.23,130c-8.61.17-17.28-1.33-25.83.73h0a.51.51,0,0,0-.23.75,5.31,5.31,0,0,0-.59,1.67q-.33,54.45-.63,108.92c0,2.83,1.22,3.76,4,3.72,6.75-.09,13.49,0,20.23.22,4.18.16,5.51-1.57,5.42-5.66-.23-11.48-.2-23-.16-34.45q.12-35.71.35-71.43C876.8,132.51,877,130,874.23,130Z"/>
      <path style="fill: #4C87C2" d="M1521.94,181.7a59.57,59.57,0,0,0-118.1,10.74c-.33,27.67,18.15,52.12,45.1,58.35,18.21,4.22,35.46,1.41,50.64-10.44,2.94-2.29,4.21-3.95,1.15-7.5-5-5.84-9.36-12.28-14-18.46-3.66-1.72-4.18,1.7-5.69,3.49h0c-15.74,10.36-35.91,5.58-44.48-10.55-2.76-5.2-2.25-6.2,3.56-6.18,26,.09,52,.13,77.95.5,3.87,0,5-1.59,5.33-4.66C1524,191.81,1522.89,186.81,1521.94,181.7Zm-32.76-3.18c-.9,2.14-3.09,1.27-4.74,1.3-6.92.08-13.84,0-20.75,0v-.15c-7.32,0-14.63,0-21.94,0-1.36,0-3,.36-3.8-1-1-1.72.42-3,1.26-4.21,11-15.87,36.84-16.22,48.15-.65C1488.37,175.17,1490,176.61,1489.18,178.52Z"/>
      <path style="fill: #4C87C2" d="M1127.56,132.49c-25.26-4.34-46.39,3.56-61.34,24.92-18.74,26.76-12.53,72,26.35,88.84a3.58,3.58,0,0,0,2.56,2.27,73.88,73.88,0,0,0,30,2.27c6.51-.85,13.37-2,18.54-7h0c2.93-2,5.81-4.14,8.8-6.07,2.77-1.78,3.14-3.45.91-6.18a181.37,181.37,0,0,1-11.33-15.29c-2.46-3.76-4.09-4.41-8-1.3-14.79,11.77-36.4,6.95-45.31-9.68-2.94-5.51-2.43-6.33,3.89-6.28q32.74.3,65.48.58c18.21.14,19.71-1.79,16-20.28C1169.32,155.28,1151.44,136.59,1127.56,132.49Zm13.76,44.15c-.73,2-2.58,1.47-4.08,1.48-5.35,0-10.7,0-16,0v-.66c-8.9,0-17.81,0-26.71,0-1.49,0-3.37.61-4.2-1.29-.66-1.51.61-2.55,1.4-3.66,11.6-16.24,37-16,48.3.4C1140.77,174.06,1141.87,175.12,1141.32,176.64Z"/>
      <path style="fill: #4C87C2" d="M672.1,133.3c-22.92,9.16-37.16,31.89-36.83,55.56.34,24.74,16.32,49.34,41.13,56.42,19.77,5.64,38.42,3.21,55.09-9.78,2.72-2.13,3.37-3.85,1-6.79-4.09-5.09-7.82-10.48-11.69-15.74a4.36,4.36,0,0,0-3.19-4.32c-1.19-.37-1.49.84-1.63,1.83h0c-12.84,13.5-37.43,10.8-47.42-6.76-3.63-6.4-3.05-7.38,4.21-7.31,25.19.26,50.37.47,75.55.91,4.29.07,5.95-1.19,6.18-5.62C756.75,147.43,713.69,116.69,672.1,133.3Zm45.5,42.09c-7.51-.21-15-.06-22.55-.06v-.27c-7.33,0-14.67-.1-22,0-4.29.08-4.84-1.44-2.72-4.87,10.32-16.68,40-16.33,49.7.59C721.7,173.74,722.05,175.52,717.6,175.39Z"/>
    </g>
  </g>
</svg>
