<svg class="coeficiente" xmlns="http://www.w3.org/2000/svg" viewBox="0 0 357.14 362.26">
  <g class="coeficiente__simbolo">
      <path class="arrow-1" style="fill: #4c86c2" d="M20.45,186.05h0q21.92-1.76,43.84-3.48c31.41-2.44,62.82-4.91,94.25-7.17,4.11-.29,5.34-1,3.47-5.18q-31.17-69.78-62-139.68c-2.24-5.1-4.31-4.93-8.39-2.53a281.18,281.18,0,0,0-27.91,19.2c-4.77,3.65-5,6.56-2.63,11.7,10.67,23.24,20.87,46.69,31.34,70,1.31,2.94,1.89,4.47-2.42,4.78-25.3,1.82-50.57,4-75.88,5.73-6,.39-9.92,1.88-10.44,8.37h0C0,151,2.52,156.14,0,159.71v27.4C6.89,188.23,13.68,187.4,20.45,186.05Z"/>
      
      <path class="arrow-2" style="fill: #4c86c2" d="M144.45,40.89Q163.83,99,183.14,157.06c1.38,4.2,2.82,4.59,6.08,1.91,5.36-4.41,10.89-8.59,16.35-12.86L310.1,64.47c1.22-1,2.73-1.67,3.13-3.89-.79-1-1.69-2.24-2.75-3.37A224.05,224.05,0,0,0,284.93,34.1c-4.6-3.59-7.75-3.55-12.32.1-19.5,15.62-39.29,30.87-59,46.22-5.34,4.16-5.36,4.11-7.5-2.34Q193.94,41.42,181.78,4.77C180.85,2,180,0,176.24,0c-13.4,0-26.41,2.3-39.34,5.48-3.06.75-3.72,1.91-2.64,5C137.83,20.54,141.07,30.74,144.45,40.89Z"/>
      
      <path class="arrow-3" style="fill: #223a78" d="M290,175.77q31.6-21.71,63.19-43.44c1.57-1.09,3.65-1.72,3.91-4.09-.3-.76-.61-1.49-.86-2.23a203.26,203.26,0,0,0-13.46-31.7c-4.95-9.14-4.92-9.15-13.32-3.38q-61.77,42.39-123.57,84.73c-3.08,2.11-4.53,3.1-.41,6.08q62.86,45.49,125.42,91.43c3.51,2.58,4.86,1.73,6.76-1.45a211,211,0,0,0,16.57-34.81c1.43-3.89.46-5.7-2.52-7.85C331,214.09,310.38,199,289.7,184,284.05,179.83,284.06,179.87,290,175.77Z"/>
      
      <path class="arrow-4" style="fill: #4c86c2" d="M163.85,197.42c-4.88.75-9.86,1-14.8,1.31q-57.29,3.79-114.58,7.57-12.16.81-24.31,1.83c-2.55.2-4.33.63-3.72,4.34a238.06,238.06,0,0,0,9,35.68c1.61,4.89,4.15,6.34,9.12,6,24.91-1.81,49.85-3.35,74.78-5,7.33-.62,7.39-.6,5.45,6.44C98,280.41,91.17,305.26,84,330c-1,3.58,0,5,2.7,6.66a229.3,229.3,0,0,0,33.44,16.8c4.94,2,6.13.41,7.23-3.93,2.8-10.94,6-21.78,9-32.66,10.56-38,21-76,31.75-113.95C169.42,198.37,169.08,196.62,163.85,197.42Z"/>
      
      <path class="arrow-5" style="fill: #4c86c2" d="M321.13,291.5Q258.7,246.77,196.32,202c-3.16-2.28-4.38-1.72-5.3,1.78-1.62,6.13-3.39,12.22-5.14,18.31C173.43,265.5,161,308.94,148.4,352.31c-1.2,4.09-.12,5.33,3.6,6a280.8,280.8,0,0,0,34.24,3.93c6.57.35,8.93-2.13,10.54-8,6.57-24.09,13.56-48.06,20.41-72.06,1.79-6.25,1.91-6.21,7.18-2.44q31.69,22.71,63.44,45.36c2.13,1.52,3.73,3,6.65.58,10.32-8.43,20.24-17.23,28.7-27.59.73-.89,1.33-1.87,1.85-2.62C324.38,293.12,322.54,292.51,321.13,291.5Z"/>
  </g>
</svg>
